<?xml version="1.0" standalone="no"?>
<!DOCTYPE svg PUBLIC "-//W3C//DTD SVG 20010904//EN"
 "http://www.w3.org/TR/2001/REC-SVG-20010904/DTD/svg10.dtd">
<svg version="1.0" xmlns="http://www.w3.org/2000/svg"
 width="32.000000pt" height="30.000000pt" viewBox="0 0 32.000000 30.000000"
 preserveAspectRatio="xMidYMid meet">

<g transform="translate(0.000000,30.000000) scale(0.100000,-0.100000)"
fill="#000000" stroke="none">
<path d="M108 279 c-44 -23 -62 -51 -60 -97 2 -37 -13 -72 -29 -72 -6 0 -7 5
-4 10 3 6 1 10 -4 10 -7 0 -11 -25 -11 -61 0 -54 2 -60 18 -54 38 16 51 16 78
2 34 -17 101 -12 125 9 9 8 24 12 33 8 12 -5 16 0 16 20 0 30 -8 33 -26 9 -11
-15 -12 -13 -2 13 10 26 14 30 25 19 7 -8 13 -27 13 -44 0 -23 4 -31 18 -30
10 0 12 3 5 6 -10 3 -10 10 -2 25 6 11 8 31 4 45 -4 16 -2 22 5 18 5 -3 10 -1
10 5 0 6 -10 8 -24 4 -23 -5 -23 -4 -17 33 11 63 3 82 -47 114 -54 34 -74 35
-124 8z m72 -14 c0 -14 -16 -15 -37 -2 -8 5 -13 3 -13 -3 0 -6 -4 -9 -9 -5
-10 6 -36 -17 -44 -37 -2 -7 -8 -10 -12 -6 -12 11 53 71 70 64 8 -3 17 -1 20
5 8 12 25 2 25 -16z m55 -10 c27 -20 33 -31 33 -65 0 -22 -1 -40 -3 -40 -4 0
-45 70 -45 77 0 4 7 -2 15 -13 12 -16 14 -16 15 -3 0 21 -36 53 -49 44 -6 -3
-11 1 -11 9 0 22 8 20 45 -9z m-45 -25 c0 -21 1 -26 16 -47 12 -20 12 -22 -1
-17 -9 4 -20 14 -25 24 -12 22 -52 16 -43 -7 4 -9 0 -13 -8 -12 -8 2 -25 -3
-37 -10 -34 -18 -38 -7 -12 34 12 20 25 34 28 31 2 -3 -1 -12 -8 -21 -19 -23
-3 -31 20 -10 10 9 19 20 18 24 -2 16 4 21 27 21 14 0 25 -4 25 -10z m-60 -74
c0 -2 -8 -10 -17 -17 -16 -13 -17 -12 -4 4 13 16 21 21 21 13z m90 -16 c0 -5
-4 -10 -10 -10 -5 0 -10 5 -10 10 0 6 5 10 10 10 6 0 10 -4 10 -10z m-10 -110
c-21 -13 -107 -12 -115 1 -5 7 7 8 38 4 26 -4 53 -3 64 3 22 13 34 5 13 -8z
m-180 6 c0 -3 -4 -8 -10 -11 -5 -3 -10 -1 -10 4 0 6 5 11 10 11 6 0 10 -2 10
-4z"/>
</g>
</svg>
